<svg width="123" height="16" viewBox="0 0 123 16" fill="none" xmlns="http://www.w3.org/2000/svg">
<g clip-path="url(#clip0_72_1336)">
<path d="M60.5371 0.43203H64.2241L68.1901 11.304L72.1571 0.43103H75.7551L69.6211 15.978H66.6721L60.5371 0.43203Z" fill="white"/>
<path fill-rule="evenodd" clip-rule="evenodd" d="M0.397461 0.508028H7.33446C9.26446 0.508028 10.7595 1.06003 11.7565 2.07403C12.6015 2.93403 13.0565 4.14703 13.0565 5.64603C13.0565 8.13903 11.7345 9.70403 9.80646 10.431L13.5115 15.944H9.61046L6.31546 11.005H3.73546V15.945H0.397461V0.508028ZM7.11746 8.00603C8.74346 8.00603 9.67546 7.12403 9.67546 5.77903C9.67546 4.32303 8.67846 3.57303 7.05246 3.57303H3.73546V8.00603H7.11746Z" fill="white"/>
<path d="M16.7325 0.508028H28.1785V3.53003H20.0485V6.66203H27.2025V9.68303H20.0495V12.925H28.2865V15.945H16.7325V0.508028Z" fill="white"/>
<path d="M31.8725 0.508028H35.2105V12.858H42.7755V15.944H31.8725V0.508028Z" fill="white"/>
<path d="M46.0185 0.504028H57.4645V3.52503H49.3345V6.65703H56.4885V9.67703H49.3355V12.919H57.5725V15.94H46.0185V0.504028Z" fill="white"/>
<path fill-rule="evenodd" clip-rule="evenodd" d="M84.0126 0.432007H80.9356L74.4326 15.978H77.8346L79.2226 12.517H85.6386L87.0256 15.978H90.5156L84.0126 0.432007ZM82.4326 4.51101L84.4466 9.51701H80.4156L82.4326 4.51101Z" fill="white"/>
<path d="M92.9395 0.54303H96.0175L103.127 10.047V0.54303H106.422V15.979H103.582L96.2345 6.16603V15.979H92.9395V0.54303Z" fill="white"/>
<path d="M109.725 3.67402H114.342V15.977H117.681V3.67302H122.298V0.541016H109.725V3.67402Z" fill="white"/>
</g>
<defs>
<clipPath id="clip0_72_1336">
<rect width="122" height="16" fill="white" transform="translate(0.397949)"/>
</clipPath>
</defs>
</svg>
