<svg width="88" height="48" viewBox="0 0 88 48" fill="none" xmlns="http://www.w3.org/2000/svg">
<g clip-path="url(#clip0_72_1339)">
<path fill-rule="evenodd" clip-rule="evenodd" d="M7.85913 32.464C7.86413 30.939 7.61113 30.279 6.23713 30.473L4.39513 30.733L4.41913 38.056L5.13713 37.954L5.15613 40.552L0.971129 41.142L0.951129 38.545L1.67013 38.444L1.63813 21.449L0.951129 21.544L0.932129 18.948L6.95913 18.098C9.86413 17.688 10.5541 18.51 10.5951 21.707L10.6431 24.713C10.6851 27.023 10.2161 28.199 8.86713 28.802C10.2081 29.056 10.6471 30.104 10.6621 32.449L10.6301 36.703C10.6211 37.085 10.7261 37.165 11.1031 37.113L11.3531 37.078L11.3721 39.675L9.40513 39.953C8.12513 40.133 7.87313 39.693 7.87613 38.393L7.85913 32.464ZM7.89113 22.45C7.90113 20.895 7.77313 20.418 6.46513 20.612L4.41213 20.915L4.43213 28.285L6.48413 27.982C7.76113 27.793 7.88113 27.28 7.89213 25.725L7.89113 22.45ZM17.5711 36.293L18.3111 36.19L18.3321 38.828L14.0221 39.428L14.0021 36.79L14.7421 36.687L14.7091 19.427L14.0021 19.524L13.9821 16.886L18.2921 16.286L18.2791 18.929L17.5391 19.032L17.5711 36.293ZM26.0001 31.551C25.9751 29.539 25.6021 28.941 23.3411 27.251C20.7891 25.309 20.1511 24.197 20.0911 21.247L20.0831 19.817C20.0631 16.697 20.8971 15.537 23.1971 15.207L23.6061 15.149C25.1181 14.932 25.9131 15.339 26.2991 16.486L26.2951 16.455L26.3051 14.924L28.7621 14.571L28.7721 22.212L26.1581 22.587V19.596C26.1691 18.066 25.9271 17.483 24.6351 17.668L24.2571 17.723C22.9671 17.908 22.8441 18.413 22.8571 19.873V21.011C22.8511 23.028 23.2871 23.616 25.5161 25.311C28.1051 27.281 28.7381 28.36 28.7661 31.315L28.7601 33.332C28.7801 36.452 27.9771 37.607 25.6781 37.937L25.2681 37.996C23.7581 38.213 22.9661 37.839 22.5531 36.726L22.5701 38.219L20.1131 38.571L20.0721 30.253L22.6861 29.877V33.554C22.7071 35.079 22.9501 35.663 24.2411 35.477L24.6191 35.423C25.9091 35.238 26.0321 34.733 26.0191 33.271L26.0001 31.551ZM40.9401 12.857V19.681L38.3701 20.05L38.3601 15.88L34.8811 16.378L34.8881 23.265L38.6481 22.726V25.248L34.8881 25.788L34.9111 33.708L38.3901 33.209L38.3821 28.133L40.9521 27.765L40.9501 35.491L31.4221 36.857L31.4021 34.209L32.1221 34.105L32.0921 16.776L31.4021 16.874L31.3821 14.224L40.9101 12.859L40.9401 12.857ZM42.6921 32.562L43.5981 32.439L46.2621 12.558L50.3721 12L53.1091 31.148L53.9831 31.03L54.0031 33.617L49.4401 34.234L49.4201 31.647L50.2931 31.528L49.9811 29.423L46.5191 29.893L46.2171 32.082L46.9931 31.976L47.0131 34.563L42.7431 35.143L42.6931 32.562H42.6921ZM47.0421 27.429L49.6521 27.054L49.3561 24.941C48.8901 21.616 48.4561 17.177 48.2791 14.571C48.1191 17.225 47.6931 21.788 47.2991 25.236L47.0421 27.429ZM55.7621 30.831L56.4821 30.73L56.4511 13.715L55.7621 13.81L55.7421 11.21L61.6021 10.384C64.5151 9.974 65.3001 10.784 65.3121 13.989V19.578C65.3221 22.784 64.5431 23.813 61.6291 24.224L59.2171 24.564L59.2421 30.337L60.0251 30.227L60.0451 32.828L55.7851 33.428L55.7621 30.831ZM59.2221 13.15L59.2401 21.429L61.2281 21.171C62.5641 20.997 62.7221 20.52 62.7001 19.092L62.6681 14.591C62.6471 13.162 62.5451 12.719 61.2091 12.893L59.2221 13.15ZM67.0721 29.115L67.7921 29.014L67.7621 12L67.0721 12.095L67.0531 9.495L72.9131 8.669C75.8261 8.259 76.6111 9.069 76.6231 12.274V17.862C76.6331 21.067 75.8541 22.097 72.9401 22.508L70.5281 22.848L70.5531 28.623L71.3361 28.513L71.3561 31.113L67.0961 31.713L67.0731 29.114L67.0721 29.115ZM70.5321 11.435L70.5501 19.715L72.5381 19.456C73.8741 19.283 74.0321 18.806 74.0101 17.378L73.9781 12.876C73.9571 11.448 73.8551 11.006 72.5191 11.178L70.5321 11.435ZM85.1621 23.837C85.1371 21.824 84.7651 21.227 82.5041 19.537C79.9501 17.596 79.3141 16.484 79.2531 13.534L79.2461 12.104C79.2261 8.985 80.0601 7.825 82.3591 7.495L82.7681 7.437C84.2801 7.22 85.0751 7.626 85.4611 8.773L85.4551 8.74L85.4651 7.21L87.9221 6.857L87.9321 14.497L85.3181 14.872V11.882C85.3291 10.352 85.0871 9.768 83.7961 9.954L83.4171 10.008C82.1271 10.193 82.0051 10.698 82.0171 12.16V13.298C82.0111 15.315 82.4471 15.903 84.6751 17.598C87.2651 19.567 87.8981 20.647 87.9271 23.601L87.9191 25.618C87.9391 28.738 87.1371 29.892 84.8391 30.223L84.4291 30.282C82.9171 30.499 82.1261 30.124 81.7131 29.012L81.7301 30.505L79.2731 30.857L79.2321 22.539L81.8461 22.164V25.838C81.8671 27.363 82.1091 27.946 83.4011 27.761L83.7791 27.707C85.0691 27.521 85.1921 27.016 85.1791 25.555L85.1621 23.837ZM87.9261 0L0.932129 11.874V14.571L87.9321 2.697L87.9261 0ZM87.9321 36.124L87.9281 33.429L0.932129 45.303V48L87.9321 36.124Z" fill="white"/>
</g>
<defs>
<clipPath id="clip0_72_1339">
<rect width="87" height="48" fill="white" transform="translate(0.932129)"/>
</clipPath>
</defs>
</svg>
