<svg width="97" height="80" viewBox="0 0 97 80" fill="none" xmlns="http://www.w3.org/2000/svg">
<g clip-path="url(#clip0_72_1342)">
<g filter="url(#filter0_d_72_1342)">
<path fill-rule="evenodd" clip-rule="evenodd" d="M4.47831 44.7999C3.99575 43.5093 2.69439 39.8398 3.92824 35.341C4.69053 32.6093 6.12025 30.5482 7.44566 28.9C16.4787 17.8472 34.1027 10.3558 41.523 7.18711C43.0691 6.53837 46.5275 5.11909 51.2064 3.71973C54.3637 2.78602 57.5807 2.01079 60.8906 1.55309C63.9736 1.12299 67.0342 0.967205 70.1619 1.26642C74.626 1.69721 78.5439 3.07515 81.8615 5.53829C83.592 6.8254 84.6683 8.0122 85.2794 8.70675C85.687 9.1774 86.3573 9.96196 87.1506 11.2004C88.7944 13.6759 89.7248 15.9612 90.298 17.5009C91.3852 20.4675 92.1048 23.5103 92.5986 26.5806C93.3224 31.0609 93.5633 35.5514 93.5503 40.0702C93.5331 44.4292 93.2325 48.7942 92.3639 53.1256C91.7762 56.059 90.9605 58.9288 89.689 61.7397C88.824 63.675 87.7918 65.7504 85.687 68.0768C83.6102 70.3797 81.3174 71.9112 79.7214 72.858C79.3003 73.0718 78.7666 73.3116 78.2043 73.5513C78.2043 73.5513 77.2765 73.9363 76.3191 74.2533C66.2653 77.66 47.2179 72.1281 47.2179 72.1281C44.6762 71.3829 27.9385 66.3726 13.279 55.2717C9.61311 52.4506 6.16807 49.3512 4.47831 44.7999Z" fill="#25252B"/>
</g>
<path d="M70.6447 42.3383H70.3295C69.275 42.4015 68.2205 42.1595 67.3291 41.6755C66.6339 41.2653 66.1442 40.6445 65.9921 39.9396C65.949 39.6135 65.9163 39.2874 65.8836 38.9613C65.7969 38.0249 65.786 37.0781 65.8291 36.1418C65.8727 35.1949 65.8291 32.186 65.4381 22.9701C62.9704 23.0227 60.5031 23.0753 58.0245 23.1279C58.1984 29.0299 58.0136 33.0277 57.6984 35.9314C57.5899 36.8782 57.5354 39.3189 58.3287 42.191C58.6444 43.3168 59.2638 44.3688 60.1444 45.2525C61.1662 46.252 62.4268 47.041 63.8509 47.5881C65.9703 48.2403 68.2314 48.5349 70.4816 48.4507C72.5034 48.5244 74.5143 48.2509 76.4057 47.6512C77.8621 47.1883 79.1559 46.4308 80.1995 45.4524C81.1668 44.4425 81.8407 43.2536 82.1776 41.9911C82.5691 39.9186 82.7322 37.8251 82.6558 35.7314V31.8704C82.6449 32.4806 82.3298 42.2121 70.6447 42.3383Z" fill="url(#paint0_linear_72_1342)"/>
<path d="M82.6711 31.914V23.556V23.1771C82.5735 22.6508 82.1083 22.2507 81.534 22.2507H77.6146C75.6224 22.2507 73.9984 23.7876 73.9335 25.7139C73.9335 25.7561 73.9226 25.7876 73.9226 25.8192C73.9226 25.8613 73.9226 25.8929 73.9335 25.9245V36.4403C74.0202 37.7351 73.9335 39.0298 73.6842 40.3035C73.5866 40.893 73.1972 41.4193 72.5799 41.7667C71.7461 42.1877 70.7715 42.3982 69.7866 42.3667C74.529 43.3667 76.2288 42.0298 78.0912 40.9035C82.9203 38.0509 82.6711 32.3772 82.6711 31.914ZM81.372 24.4718H81.3829C81.3829 24.4718 81.3829 24.4718 81.372 24.4718Z" fill="#E6E6E6"/>
<path d="M46.4269 22.2507H45.7508H42.4039C42.1823 22.2507 41.9495 22.2507 41.7279 22.2507C41.5727 22.2507 41.4286 22.2507 41.2735 22.2507C41.0518 22.2507 40.8191 22.2507 40.5975 22.2507C40.265 22.3359 39.6111 22.5807 38.9461 23.4003C38.2923 24.1986 37.9487 25.1566 37.7935 25.6569V25.6675C36.6964 29.4142 34.9675 35.3217 33.7041 39.6645C34.6904 42.996 36.7185 45.5932 39.2343 46.6683C39.2897 46.5725 39.334 46.4873 39.3673 46.4021C39.5446 46.4979 39.7219 46.5831 39.9103 46.6683C40.01 46.4979 40.0765 46.3383 40.1209 46.2425C40.3093 45.838 40.4312 45.4761 40.5088 45.2206V45.21C42.6366 37.9188 44.7645 30.6383 46.8923 23.3471C46.9034 23.3045 46.9145 23.2619 46.9367 23.2194C46.9477 23.1555 46.9589 23.081 46.9589 23.0065C46.9699 22.5807 46.7261 22.2507 46.4269 22.2507Z" fill="url(#paint1_linear_72_1342)"/>
<path d="M64.8446 22.2507H64.1167H60.9698C60.7237 22.2507 60.4776 22.2507 60.2419 22.2507C60.124 22.2507 60.0067 22.2507 59.8779 22.2507C59.6318 22.2507 59.3857 22.2507 59.15 22.2507C58.8292 22.3359 58.1978 22.5807 57.5556 23.4003C56.9237 24.1986 56.5919 25.1566 56.4424 25.6569V25.6675C55.3718 29.4142 53.7021 35.3217 52.4819 39.6645C53.4347 42.996 55.3936 45.5932 57.8229 46.6683C57.8764 46.5512 57.9299 46.4554 57.973 46.3702C58.1656 46.4767 58.3582 46.5831 58.5618 46.6683C58.6578 46.4979 58.7222 46.3383 58.7648 46.2425C58.947 45.838 59.0649 45.4761 59.1396 45.2206V45.21C61.1946 37.9188 63.2496 30.6383 65.3046 23.3471C65.3155 23.3045 65.3259 23.2619 65.3477 23.2194C65.3581 23.1555 65.369 23.081 65.369 23.0065C65.369 22.5807 65.1333 22.2507 64.8446 22.2507Z" fill="url(#paint2_linear_72_1342)"/>
<path d="M40.172 46.1171C39.3175 45.4297 38.2387 44.4252 37.2347 43.0082C36.4764 41.9402 35.9637 40.9357 35.6005 40.0897L31.4777 25.6241C31.3281 25.1165 31.0077 24.1754 30.3775 23.3823C29.7473 22.5787 29.1171 22.3355 28.7967 22.2509C28.5403 22.2509 28.284 22.2509 28.0383 22.2509C27.9315 22.2509 27.8247 22.2509 27.7179 22.2509C27.4615 22.2509 27.2052 22.2509 26.9489 22.2509H23.7445H23.7338C23.7232 22.2509 23.7232 22.2509 23.7125 22.2509H22.9328H22.9221C22.9114 22.2509 22.9007 22.2509 22.9007 22.2509C22.7085 22.2615 22.5376 22.4729 22.5055 22.7373C22.4949 22.8324 22.4949 22.9276 22.5162 23.0228C22.5269 23.0439 22.5269 23.0757 22.5376 23.0968V23.1074C24.6097 30.4776 26.6819 37.8374 28.7646 45.2077V45.2182C28.8394 45.472 28.9569 45.8421 29.1385 46.2439C29.2453 46.4871 29.4909 47.0159 29.8755 47.4811C30.292 47.9781 30.6659 48.1685 31.061 48.3377C31.4242 48.4962 37.0425 48.4645 37.1493 48.454H37.1813C37.6299 48.4117 37.9931 48.2954 38.2601 48.1685C38.6553 47.9887 39.0398 47.809 39.4457 47.3119C39.4564 47.3014 39.4564 47.3014 39.467 47.2908C39.905 46.8361 40.0973 46.3603 40.172 46.1171Z" fill="white"/>
<path d="M58.7411 46.265C57.8647 45.5776 56.7588 44.5625 55.7298 43.135C54.952 42.067 54.4266 41.0413 54.0543 40.1953L49.8277 25.6451C49.6743 25.1375 49.3458 24.1859 48.6998 23.3928C48.0538 22.5786 47.4077 22.3354 47.0792 22.2507C46.8493 22.2507 46.6084 22.2507 46.3785 22.2507C46.2471 22.2507 46.1156 22.2507 45.9733 22.2507C45.7324 22.2507 45.4915 22.2507 45.2616 22.2507H41.9H41.889C41.878 22.2507 41.878 22.2507 41.8671 22.2507H41.1444H41.1335C41.1225 22.2507 41.1115 22.2507 41.1115 22.2507C40.9145 22.2613 40.7392 22.4728 40.7064 22.7372C40.6955 22.8323 40.6955 22.9275 40.7173 23.0227C40.7283 23.0438 40.7283 23.0756 40.7392 23.0967V23.1073C42.8635 30.4776 44.9878 37.8373 47.123 45.2075V45.2181C47.1997 45.4719 47.3201 45.842 47.5063 46.2438C47.6158 46.487 47.8676 47.0157 48.2618 47.481C48.6889 47.978 49.0721 48.1683 49.4773 48.3375C49.8496 48.4961 55.6093 48.4644 55.7189 48.4539H55.7516C55.9489 48.4433 56.1238 48.4115 56.277 48.3692C56.2988 48.3692 56.3211 48.3692 56.3211 48.3692H56.3538C56.6384 48.3058 57.2848 48.1366 57.8756 47.5868C58.4343 47.0897 58.6534 46.5399 58.7411 46.265Z" fill="white"/>
<path d="M39.0785 53.6025L37.1003 58.2182H36.4342L34.784 54.4361L33.1338 58.2182H32.4678L30.4995 53.6025H31.1755L32.8157 57.5248L34.4957 53.6025H35.1021L36.7722 57.5248L38.4323 53.6025H39.0785Z" fill="white"/>
<path d="M44.5485 56.1036H40.1745C40.2143 56.5831 40.423 56.9722 40.8008 57.2704C41.1786 57.5629 41.6557 57.7092 42.2323 57.7092C42.557 57.7092 42.8552 57.6594 43.127 57.5599C43.3987 57.4547 43.6339 57.3029 43.8328 57.1038L44.2304 57.5076C43.9985 57.7529 43.7068 57.9403 43.3556 58.0688C43.011 58.1979 42.6299 58.2624 42.2124 58.2624C41.6756 58.2624 41.1984 58.1628 40.7809 57.9637C40.37 57.759 40.0486 57.4781 39.8167 57.1215C39.5847 56.7645 39.4688 56.3606 39.4688 55.9101C39.4688 55.4601 39.5781 55.0563 39.7968 54.6992C40.0221 54.3426 40.3269 54.0648 40.7113 53.8657C41.1024 53.6671 41.5397 53.5675 42.0235 53.5675C42.5073 53.5675 42.9414 53.6671 43.3258 53.8657C43.7101 54.0648 44.0117 54.3426 44.2304 54.6992C44.4491 55.0502 44.5585 55.454 44.5585 55.9101L44.5485 56.1036ZM42.0235 54.1029C41.5198 54.1029 41.0957 54.2461 40.7511 54.5326C40.4131 54.8135 40.2209 55.1822 40.1745 55.6384H43.8825C43.836 55.1822 43.6406 54.8135 43.296 54.5326C42.958 54.2461 42.5338 54.1029 42.0235 54.1029Z" fill="white"/>
<path d="M47.3964 58.2624C46.9723 58.2624 46.5647 58.2095 46.1737 58.1044C45.7893 57.9932 45.4877 57.8555 45.269 57.692L45.5872 57.2003C45.8058 57.3526 46.0809 57.4781 46.4123 57.5777C46.7436 57.6711 47.0882 57.7179 47.4461 57.7179C47.9232 57.7179 48.2745 57.6539 48.4998 57.5248C48.7318 57.3902 48.8478 57.2033 48.8478 56.9636C48.8478 56.7939 48.7848 56.6619 48.6589 56.5684C48.5329 56.4688 48.3739 56.3957 48.1817 56.349C47.9895 56.2966 47.7344 56.2469 47.4163 56.2001C46.9921 56.1295 46.6508 56.0594 46.3924 55.9893C46.1339 55.9132 45.9119 55.7877 45.7264 55.6119C45.5474 55.4367 45.4579 55.1939 45.4579 54.8836C45.4579 54.4975 45.6402 54.1816 46.0047 53.9358C46.3692 53.6904 46.8762 53.5675 47.5256 53.5675C47.8636 53.5675 48.2016 53.6081 48.5396 53.6904C48.8776 53.7661 49.1559 53.8687 49.3746 53.9972L49.0665 54.4975C48.6357 54.2344 48.1221 54.1029 47.5256 54.1029C47.075 54.1029 46.7337 54.173 46.5017 54.3132C46.2764 54.4539 46.1637 54.6377 46.1637 54.8663C46.1637 55.0415 46.2267 55.1822 46.3526 55.2874C46.4852 55.3925 46.6475 55.4718 46.8397 55.5241C47.0319 55.5708 47.297 55.6206 47.635 55.6734C48.0525 55.7435 48.3871 55.8136 48.639 55.8842C48.8908 55.9543 49.1062 56.0742 49.2852 56.2438C49.4641 56.4135 49.5536 56.6476 49.5536 56.9458C49.5536 57.3496 49.3614 57.6711 48.977 57.9109C48.5992 58.145 48.0724 58.2624 47.3964 58.2624Z" fill="white"/>
<path d="M52.9958 58.2624C52.4922 58.2624 52.038 58.1628 51.6338 57.9637C51.2296 57.759 50.9114 57.4781 50.6795 57.1215C50.4475 56.7645 50.3315 56.3606 50.3315 55.9101C50.3315 55.4601 50.4475 55.0563 50.6795 54.6992C50.9114 54.3426 51.2296 54.0648 51.6338 53.8657C52.038 53.6671 52.4922 53.5675 52.9958 53.5675C53.4994 53.5675 53.9532 53.6671 54.3577 53.8657C54.7616 54.0648 55.0768 54.3426 55.3021 54.6992C55.5342 55.0563 55.65 55.4601 55.65 55.9101C55.65 56.3606 55.5342 56.7645 55.3021 57.1215C55.0768 57.4781 54.7616 57.759 54.3577 57.9637C53.9532 58.1628 53.4994 58.2624 52.9958 58.2624ZM52.9958 57.7092C53.367 57.7092 53.6983 57.6361 53.9896 57.4898C54.2881 57.3379 54.5202 57.1241 54.6858 56.8493C54.8514 56.5745 54.934 56.2616 54.934 55.9101C54.934 55.5591 54.8514 55.2462 54.6858 54.9714C54.5202 54.6966 54.2881 54.4859 53.9896 54.3396C53.6983 54.1877 53.367 54.1115 52.9958 54.1115C52.6246 54.1115 52.2899 54.1877 51.9917 54.3396C51.7 54.4859 51.4681 54.6966 51.2958 54.9714C51.1301 55.2462 51.0473 55.5591 51.0473 55.9101C51.0473 56.2616 51.1301 56.5745 51.2958 56.8493C51.4681 57.1241 51.7 57.3379 51.9917 57.4898C52.2899 57.6361 52.6246 57.7092 52.9958 57.7092Z" fill="white"/>
<path d="M58.8205 52.1894C58.5157 52.1894 58.2837 52.2626 58.1243 52.4089C57.9721 52.5551 57.8958 52.7715 57.8958 53.0585V53.6025H59.5064V54.1287H57.9155V58.2181H57.2099V54.1287H56.2754V53.6025H57.2099V53.0321C57.2099 52.611 57.346 52.2773 57.6175 52.0315C57.8958 51.7861 58.2868 51.6632 58.7904 51.6632C58.9892 51.6632 59.1813 51.6896 59.3672 51.7419C59.5526 51.7887 59.7083 51.8593 59.8345 51.9527L59.5957 52.418C59.3901 52.2656 59.132 52.1894 58.8205 52.1894Z" fill="white"/>
<path d="M63.213 57.9373C63.0806 58.0429 62.915 58.1247 62.7161 58.1831C62.5235 58.2359 62.3216 58.2623 62.1097 58.2623C61.6191 58.2623 61.2416 58.145 60.9763 57.9108C60.711 57.6772 60.5786 57.3465 60.5786 56.9194V54.1288H59.644V53.6025H60.5786V52.5933H61.2842V53.6025H62.875V54.1288H61.2842V56.8843C61.2842 57.1591 61.3605 57.3699 61.5132 57.5162C61.672 57.6564 61.8974 57.727 62.1892 57.727C62.335 57.727 62.4742 57.7061 62.6066 57.6655C62.7457 57.6244 62.8652 57.566 62.9643 57.4898L63.213 57.9373Z" fill="white"/>
<path d="M68.7945 53.6025L66.1804 58.7713C65.968 59.2041 65.7229 59.5109 65.4447 59.6927C65.1664 59.874 64.8315 59.9644 64.4405 59.9644C64.1887 59.9644 63.9535 59.9294 63.7349 59.8593C63.5163 59.7892 63.3274 59.6836 63.168 59.5434L63.4961 59.0781C63.7614 59.3123 64.0797 59.4291 64.4504 59.4291C64.6892 59.4291 64.8912 59.3707 65.0568 59.2538C65.2292 59.1365 65.3881 58.9379 65.534 58.657L65.7629 58.2095L63.4265 53.6025H64.1622L66.1305 57.5248L68.0988 53.6025H68.7945Z" fill="white"/>
<path d="M71.7807 58.2624C71.2771 58.2624 70.8228 58.1628 70.4188 57.9637C70.0144 57.759 69.6961 57.4781 69.4646 57.1215C69.2325 56.7645 69.1167 56.3606 69.1167 55.9101C69.1167 55.4601 69.2325 55.0563 69.4646 54.6992C69.6961 54.3426 70.0144 54.0648 70.4188 53.8657C70.8228 53.6671 71.2771 53.5675 71.7807 53.5675C72.2843 53.5675 72.7381 53.6671 73.1426 53.8657C73.547 54.0648 73.8617 54.3426 74.087 54.6992C74.3191 55.0563 74.4349 55.4601 74.4349 55.9101C74.4349 56.3606 74.3191 56.7645 74.087 57.1215C73.8617 57.4781 73.547 57.759 73.1426 57.9637C72.7381 58.1628 72.2843 58.2624 71.7807 58.2624ZM71.7807 57.7092C72.1519 57.7092 72.4832 57.6361 72.775 57.4898C73.073 57.3379 73.3051 57.1241 73.4707 56.8493C73.6363 56.5745 73.7189 56.2616 73.7189 55.9101C73.7189 55.5591 73.6363 55.2462 73.4707 54.9714C73.3051 54.6966 73.073 54.4859 72.775 54.3396C72.4832 54.1877 72.1519 54.1115 71.7807 54.1115C71.4095 54.1115 71.0746 54.1877 70.7766 54.3396C70.4848 54.4859 70.2532 54.6966 70.0809 54.9714C69.9152 55.2462 69.8322 55.5591 69.8322 55.9101C69.8322 56.2616 69.9152 56.5745 70.0809 56.8493C70.2532 57.1241 70.4848 57.3379 70.7766 57.4898C71.0746 57.6361 71.4095 57.7092 71.7807 57.7092Z" fill="white"/>
<path d="M80.5878 53.6025V58.2182H79.9118V57.376C79.7259 57.6564 79.471 57.8758 79.1465 58.0338C78.8214 58.1862 78.4502 58.2623 78.0328 58.2623C77.35 58.2623 76.8101 58.0952 76.4124 57.762C76.0214 57.4227 75.8262 56.9285 75.8262 56.2789V53.6025H76.5318V56.2174C76.5318 56.703 76.6678 57.0717 76.9393 57.3232C77.2109 57.5746 77.5987 57.7006 78.1023 57.7006C78.6527 57.7006 79.0867 57.5543 79.4045 57.2617C79.7228 56.9636 79.8816 56.5511 79.8816 56.0244V53.6025H80.5878Z" fill="white"/>
</g>
<defs>
<filter id="filter0_d_72_1342" x="-52.5884" y="-19.8883" width="202.139" height="186.25" filterUnits="userSpaceOnUse" color-interpolation-filters="sRGB">
<feFlood flood-opacity="0" result="BackgroundImageFix"/>
<feColorMatrix in="SourceAlpha" type="matrix" values="0 0 0 0 0 0 0 0 0 0 0 0 0 0 0 0 0 0 127 0" result="hardAlpha"/>
<feOffset dy="35"/>
<feGaussianBlur stdDeviation="28"/>
<feColorMatrix type="matrix" values="0 0 0 0 0 0 0 0 0 0 0 0 0 0 0 0 0 0 0.1 0"/>
<feBlend mode="normal" in2="BackgroundImageFix" result="effect1_dropShadow_72_1342"/>
<feBlend mode="normal" in="SourceGraphic" in2="effect1_dropShadow_72_1342" result="shape"/>
</filter>
<linearGradient id="paint0_linear_72_1342" x1="57.6325" y1="35.7279" x2="82.661" y2="35.7279" gradientUnits="userSpaceOnUse">
<stop stop-color="#E1E1E1"/>
<stop offset="1" stop-color="#C8C8C8"/>
</linearGradient>
<linearGradient id="paint1_linear_72_1342" x1="39.974" y1="34.0448" x2="32.044" y2="48.6938" gradientUnits="userSpaceOnUse">
<stop stop-color="white"/>
<stop offset="1" stop-color="#B3B3B3"/>
</linearGradient>
<linearGradient id="paint2_linear_72_1342" x1="58.5758" y1="34.0461" x2="50.4846" y2="48.4814" gradientUnits="userSpaceOnUse">
<stop stop-color="white"/>
<stop offset="1" stop-color="#B3B3B3"/>
</linearGradient>
<clipPath id="clip0_72_1342">
<rect width="96" height="80" fill="white" transform="translate(0.46582)"/>
</clipPath>
</defs>
</svg>
