<svg width="108" height="16" viewBox="0 0 108 16" fill="none" xmlns="http://www.w3.org/2000/svg">
<g clip-path="url(#clip0_72_1361)">
<mask id="mask0_72_1361" style="mask-type:luminance" maskUnits="userSpaceOnUse" x="0" y="0" width="108" height="16">
<path d="M107.672 0.5H0.671875V15.2805H107.672V0.5Z" fill="white"/>
</mask>
<g mask="url(#mask0_72_1361)">
<path d="M107.694 0.5H104.092V15.2805H107.694V0.5Z" fill="white"/>
<path d="M78.461 14.9094C77.4349 13.5995 73.0685 8.0759 72.6537 7.55193C72.7192 7.48643 77.0201 1.94103 77.8716 0.84942L78.1554 0.478271H74.0073L69.5753 6.37299H65.449V0.500104H61.8467V15.2806H65.449V9.23302C66.2786 9.23302 69.1387 9.23302 69.7936 9.23302L74.4876 15.2806H78.723L78.461 14.9094Z" fill="white"/>
<path d="M13.0289 0.5H8.72799L0.671875 15.2805H4.71085L6.28277 12.3768H15.627L17.2207 15.2805H21.1724L13.0289 0.5ZM10.9985 3.884L14.0769 9.53856H7.81103L10.8457 3.884H10.9985Z" fill="white"/>
<path d="M92.8041 0.5H88.5249L80.4688 15.2805H84.5078L86.0797 12.3768H95.4239L97.0177 15.2805H100.969L92.8041 0.5ZM90.7737 3.884L93.852 9.53856H87.5643L90.599 3.884H90.7737Z" fill="white"/>
<path d="M41.8257 0.5V3.84034H48.5937V15.2805H52.1742V3.84034H58.9203V0.5H41.8257Z" fill="white"/>
<path d="M36.7173 10.2372C38.3984 9.34207 39.4682 7.57366 39.4682 5.67425C39.4682 2.87972 37.2413 0.521832 34.4686 0.5C31.6741 0.5 23.2031 0.5 23.2031 0.5V15.2805H26.8055V10.7612H33.0713L36.499 15.2805H40.7563L36.7173 10.2372ZM36.0842 5.76158C36.0842 6.41655 35.7785 7.00602 35.2764 7.37717C34.9926 7.59549 34.6214 7.79198 34.2284 7.79198C32.2854 7.79198 26.7836 7.81381 26.7836 7.81381V3.77484H26.8273H34.2939C34.7743 3.77484 35.2327 3.99317 35.5602 4.36431C35.9095 4.75729 36.0842 5.25944 36.0842 5.76158Z" fill="white"/>
</g>
</g>
<defs>
<clipPath id="clip0_72_1361">
<rect width="108" height="16" fill="white"/>
</clipPath>
</defs>
</svg>
