<svg width="87" height="31" viewBox="0 0 87 31" fill="none" xmlns="http://www.w3.org/2000/svg">
<path d="M36.0518 24.7261H31.2915L39.1885 15.6482V15.4268L31.2915 6.3859H36.1256L42.2144 13.3234H42.4358L48.4508 6.3859H53.248L45.3511 15.353V15.5744L53.248 24.7261H48.4139L42.3251 17.7147H42.0668L36.0518 24.7261Z" fill="white"/>
<path d="M63.1224 25.0951C57.4395 25.0951 54.266 21.2573 54.266 15.5744C54.266 9.89157 57.4764 6.01689 63.1593 6.01689C67.4768 6.01689 70.0599 8.08338 70.798 11.4783H71.1301V6.3859H74.7834V30.9994H70.798V19.5598H70.6873C69.9123 22.9179 67.2554 25.0951 63.1224 25.0951ZM58.2883 15.5744C58.2883 19.9657 60.5393 21.4787 64.4878 21.4787C68.3994 21.4787 70.798 19.6336 70.798 15.8696V15.5375C70.798 11.589 68.5101 9.67016 64.414 9.67016C60.5762 9.67016 58.2883 11.1462 58.2883 15.5744Z" fill="white"/>
<path fill-rule="evenodd" clip-rule="evenodd" d="M78.4712 20.8661C78.4698 20.8227 78.4691 20.7792 78.4691 20.7355V0.995605H82.4545V20.8661H86.136V24.7225H82.3257C80.1959 24.7225 78.4693 22.9959 78.4693 20.8661H78.4712Z" fill="white"/>
<path d="M9.76855 0.999023C9.76855 2.83273 10.1313 4.64664 10.8305 6.34183C11.5297 8.03702 12.5587 9.5739 13.8581 10.8667C15.1509 12.1596 16.6944 13.1885 18.383 13.8943C20.0782 14.5935 21.8921 14.9563 23.7258 14.9563V10.7678C22.4462 10.7678 21.1731 10.5171 19.9858 10.0224C18.7986 9.53432 17.7234 8.80875 16.8197 7.9051C15.9095 6.99484 15.1905 5.91968 14.7024 4.73899C14.2143 3.5517 13.9571 2.28525 13.9571 0.999023L9.76855 0.999023Z" fill="url(#paint0_linear_72_1283)" fill-opacity="0.8"/>
<path d="M13.9573 24.7243C13.9573 22.8906 13.5945 21.0767 12.8953 19.3815C12.1961 17.6864 11.1671 16.1495 9.8677 14.8566C8.56828 13.5638 7.0314 12.5348 5.34281 11.8291C3.64762 11.1299 1.8337 10.7671 0 10.7671V14.9556C1.27964 14.9556 2.55267 15.2062 3.73996 15.7009C4.92725 16.189 6.00241 16.9146 6.90607 17.8183C7.81633 18.7285 8.5353 19.8037 9.02341 20.9844C9.51151 22.1717 9.76876 23.4381 9.76876 24.7243H13.9573Z" fill="url(#paint1_linear_72_1283)" fill-opacity="0.8"/>
<path d="M9.76855 24.7243C9.76855 22.8906 10.1313 21.0767 10.8305 19.3815C11.5297 17.6864 12.5587 16.1495 13.8581 14.8566C15.1575 13.5638 16.6944 12.5348 18.383 11.8291C20.0782 11.1299 21.8921 10.7671 23.7258 10.7671V14.9556C22.4462 14.9556 21.1731 15.2062 19.9858 15.7009C18.7986 16.189 17.7234 16.9146 16.8197 17.8183C15.9095 18.7285 15.1905 19.8037 14.7024 20.9844C14.2143 22.1717 13.9571 23.4381 13.9571 24.7243H9.76855Z" fill="url(#paint2_linear_72_1283)" fill-opacity="0.8"/>
<path d="M23.7197 20.1809V24.719H19.1816V20.1809H23.7197Z" fill="url(#paint3_linear_72_1283)" fill-opacity="0.8"/>
<path d="M13.9573 0.999023C13.9573 2.83273 13.5945 4.64664 12.8953 6.34183C12.1961 8.03702 11.1671 9.5739 9.8677 10.8667C8.57487 12.1596 7.0314 13.1885 5.34281 13.8943C3.64762 14.5935 1.8337 14.9563 0 14.9563V10.7678C1.27963 10.7678 2.55267 10.5171 3.73996 10.0224C4.92725 9.53432 6.00241 8.80875 6.90607 7.9051C7.81633 6.99484 8.5353 5.91968 9.02341 4.73899C9.51151 3.5517 9.76876 2.28525 9.76876 0.999023L13.9573 0.999023Z" fill="url(#paint4_linear_72_1283)" fill-opacity="0.8"/>
<defs>
<linearGradient id="paint0_linear_72_1283" x1="16.7434" y1="14.9537" x2="16.7434" y2="0.999023" gradientUnits="userSpaceOnUse">
<stop stop-color="#D0FFC2"/>
<stop offset="1" stop-color="#7FFDEC"/>
</linearGradient>
<linearGradient id="paint1_linear_72_1283" x1="6.97732" y1="10.7677" x2="6.97732" y2="24.7224" gradientUnits="userSpaceOnUse">
<stop stop-color="#D0FFC2"/>
<stop offset="1" stop-color="#7FFDEC"/>
</linearGradient>
<linearGradient id="paint2_linear_72_1283" x1="16.7434" y1="10.7677" x2="16.7434" y2="24.7224" gradientUnits="userSpaceOnUse">
<stop stop-color="#C3FFB1" stop-opacity="0.815686"/>
<stop offset="1" stop-color="#7FFDEC"/>
</linearGradient>
<linearGradient id="paint3_linear_72_1283" x1="23.7213" y1="22.453" x2="19.1825" y2="22.453" gradientUnits="userSpaceOnUse">
<stop stop-color="#D0FFC2"/>
<stop offset="1" stop-color="#7FFDEC"/>
</linearGradient>
<linearGradient id="paint4_linear_72_1283" x1="6.97732" y1="14.9537" x2="6.97732" y2="0.999023" gradientUnits="userSpaceOnUse">
<stop stop-color="#D0FFC2"/>
<stop offset="1" stop-color="#7FFDEC"/>
</linearGradient>
</defs>
</svg>
